<?xml version="1.0" encoding="UTF-8"?>
<svg id="Ebene_1" data-name="Ebene 1" xmlns="http://www.w3.org/2000/svg" viewBox="0 0 65.73 71.38">
  <defs>
    <style>
      .cls-1 {
        fill: #19447a;
      }

      .cls-2 {
        fill: #1a447a;
      }

      .cls-3 {
        fill: #19437a;
      }
    </style>
  </defs>
  <path class="cls-2" d="M17.51,57.6l20.81,10.14.14-32.69c-.32-.83-1.55-1.09-2.44-1.37.58-1.07,1.55-1.58,2.4-2.58,1.19.33,2.33.31,3.45-.14l13.87,16.4,3.9-4.04c1.2-1.24,1.16-3.1.57-4.72l-4.87-13.35,3.73-1.69-5.24-2.47c-.58-.9-1.06-2.33-1.04-3.59l10.67,4.33c1.39.56,2.29,2.2,2.29,3.79v30.8c-.01,1.27-.76,2.89-1.93,3.47l-22.39,11.02c-1.72.85-3.22.44-4.84-.36l-21.17-10.44c-1.47-.72-2.61-2.21-2.62-3.9l-.14-16.3c1.3.2,2.17.81,3.28,1.38l.04,13.56c-.03,1.14.35,2.16,1.55,2.74Z"/>
  <path class="cls-1" d="M20.57,41.77c-.8.22-2.05.83-2.75.26-.65-.52-.38-1.74-.14-2.52l-8.76-3.83c.98-.68,2-2.15,3.14-2.07l9.18.63c2.04-2.75,4.3-5.12,6.73-7.52l5.74-5.67L10.16,11.45c2.2-2.11,3.51-3.17,6.38-2.83l26.53,3.15,8.77-8.21c2.08-1.95,4.61-3.44,7.5-3.57.87,0,1.6.23,2.02.69.53.57.64,1.3.54,2.17-.37,2-1.31,3.85-2.8,5.32l-9.2,9.07,7.8,21.01c.97,2.62.65,3.46-1.88,5.75l-15.18-17.94-6.08,5.76c-2.68,2.54-5.25,4.93-8.31,7.1l1.45,7.67c-.8,1.07-1.59,1.96-2.58,2.79l-4.53-7.61Z"/>
  <path class="cls-3" d="M17.6,26.28c-.34-.15-.79-.29-1.17-.05-.26.17-.46.59-.46,1.13l-.03,3.95c-1.14.05-2.07,0-3.19-.25l.02-5.35c0-2.08,1.34-3.45,3.19-4.21l6.15-2.52,3.94,1.59c-2.14,1.18-4.11,1.86-6.44,2.94l5.61,2.78-2.16,2.43-5.48-2.43Z"/>
</svg>